<svg version="1" xmlns="http://www.w3.org/2000/svg" width="1600" height="1600" viewBox="0 0 1200.000000 1200.000000"><path d="M358 62.6c-14.4 2.8-25.1 11-28.2 21.8-.9 3.1-1.2 57.8-1.3 223.1-.1 120.4-.5 223-.9 228-.4 4.9-1.6 13.3-2.7 18.5-2.5 12.4-2.5 12.1-5 19.3-13.7 39-44.2 58.4-90.6 57.8-39.8-.5-68.7-17.9-84.4-50.9-2.3-4.8-5.7-12-7.6-16-5.9-12.2-15.2-18.2-29.3-18.8-32-1.2-53.7 23.7-44.5 51.1 1 2.7 3.3 8.1 5.3 12 1.9 3.8 4.2 8.3 5 10 1.5 3 10.3 16.3 12.7 19.4 12.3 15.3 23.7 26 35.5 33.5 2.5 1.6 5.7 3.7 7.1 4.7 8.3 5.6 34.6 15.9 48.4 19 19.8 4.3 30.6 5.4 55 5.4 20.8 0 29.8-.7 42.5-3 4.1-.8 8.6-1.6 10-1.9 1.4-.2 6.4-1.6 11.1-3 25.2-7.4 44.9-18.4 61.2-34.1 12.7-12.2 21.4-24.3 29.2-40.9 10.3-21.6 15.6-42.9 18-72.6.2-2.5.5-106.1.5-230.4.1-256.9 1-232.7-8.5-242.2-6.8-6.9-13.8-9.5-26.5-9.9-5.2-.2-10.6-.1-12 .1zM541.1 503.6c-6.8 1.6-16.6 6.4-21.4 10.5-6.3 5.4-12 15.5-14.2 25.4-.8 3.7-.8 564.6 0 570 1.3 8.2 8.1 16.9 16.1 20.5 5.8 2.7 8.7 3.2 19.1 3.6 13.3.4 23.2-2.7 29.9-9.4 4.1-4.1 7-9.3 7.8-14.2.6-3.8.7-260.9.1-285.5-.7-31.5-1.7-60.3-2.9-89-.4-7.7-.9-19-1.1-25-.3-6.1-.7-15.1-1-20-.3-5-.7-13.5-1-19-.3-5.5-.7-13.6-1-18-.2-4.4-.7-13.2-1-19.5-.3-6.3-.7-14.9-1-19-.3-4.1-.8-13.4-1.1-20.5-.3-7.2-.7-14.9-.8-17.2-.2-2.3.1-4 .6-3.7.4.3.8 1.1.8 1.8 0 2 30.3 95.8 33 102.1.5 1.1 2.5 6.9 4.5 13 11 33 35.9 100.9 41.6 113.2 1 2.4 1.9 4.6 1.9 4.9 0 .3.6 2 1.4 3.7.8 1.8 15 37.4 31.6 79.2 16.6 41.8 30.8 77.3 31.5 79 .7 1.6 2.5 6.1 4 10 1.5 3.8 3.3 8.3 4 10 .7 1.6 2.5 6.1 4 10 1.5 3.8 3.3 8.5 4.1 10.3.8 1.9 3 7.5 5 12.5 1.9 5.1 3.9 10.1 4.4 11.2.5 1.1 4.1 9.9 7.8 19.5 8.5 21.7 6.9 17.7 14.6 36.4 9.6 23.6 17 33.3 29.8 39.1 6.6 3 9 3.5 20.8 4.1 24.8 1.5 40-7.4 50.8-29.6 2.8-5.8 8.7-19.7 13.2-31s8.7-21.9 9.5-23.5c.7-1.7 8.1-19.9 16.3-40.5 8.3-20.6 23.2-57.8 33.2-82.5 49-121.4 63.5-157.9 71.3-179.5 4.6-12.9 9.4-26.2 10.6-29.5 1.2-3.3 2.4-6.5 2.5-7 .2-.6.6-1.7.9-2.5 4.7-12.4 31.3-91.4 39.2-116.5 6.7-21.6 6.5-21.2 5.9-10.6-.7 14-1.4 26.9-1.9 33.6-.2 3.3-.6 10.7-.9 16.5-.4 5.8-.8 14.1-1.1 18.5-.2 4.4-.7 12.9-1 19-.3 6-.8 14.1-1 18-1.5 25.3-2.7 53.7-4 91-.4 9.9-.9 23.6-1.1 30.5-.9 23.8-1.1 296.4-.2 300.8 1.3 7.3 4.9 13.2 10.3 17.2 8.2 6.1 13.2 7.5 27 7.4 11.4 0 12.3-.2 18.7-3.3 7.3-3.5 12-8.1 15.2-15l2.1-4.6.2-283.5c.2-232 0-284.5-1.1-289-3.9-16.3-13.9-27.3-30.2-33.1-6.8-2.5-27.3-3.5-35.9-1.8-2.7.6-5.9 1.2-7.1 1.5-7.8 1.5-17.3 6.5-23.7 12.3-8.8 7.9-14 16.9-22.6 39.1-2.9 7.4-5.9 14.8-6.6 16.5-.7 1.6-4.1 10.2-7.5 19-3.4 8.8-6.8 17.3-7.5 19-.7 1.6-2.1 5-3 7.5-.9 2.5-2.1 5.4-2.6 6.5-.5 1.1-4.3 10.8-8.5 21.5s-8.2 20.8-8.9 22.5c-.7 1.6-5.5 13.6-10.5 26.5-5.1 12.9-9.8 24.8-10.5 26.5-.7 1.6-4.4 11.1-8.3 21-3.9 9.9-15.1 38-24.8 62.5-9.6 24.5-20.1 50.8-23.1 58.5-3 7.7-10.6 26.8-16.8 42.5-20.3 51.3-39.3 106-48.5 140-4.5 16.4-4.4 16.3-5.9 9.4-4.8-21.7-21.5-72.8-38.6-117.9-5.1-13.5-22.5-57.6-24.5-62.3-.6-1.2-1.4-3.2-1.9-4.5-.5-1.2-3-7.4-5.6-13.7-2.5-6.3-4.8-12.2-5-13-.3-1.4-2.1-5.9-5-12.5-1.3-2.9-77.1-193.2-102-256-17.2-43.3-20.4-49.4-30.3-58.7-5.8-5.5-14.3-10-23.3-12.4-8.1-2.2-30.1-2.7-37.8-.8z"/></svg>