<svg width="84.642mm" height="38.48mm" version="1.1" viewBox="0 0 84.641861 38.480339"
     xmlns="http://www.w3.org/2000/svg" xmlns:cc="http://creativecommons.org/ns#"
     xmlns:dc="http://purl.org/dc/elements/1.1/" xmlns:rdf="http://www.w3.org/1999/02/22-rdf-syntax-ns#">
    <metadata>
        <rdf:RDF>
            <cc:Work rdf:about="">
                <dc:format>image/svg+xml</dc:format>
                <dc:type rdf:resource="http://purl.org/dc/dcmitype/StillImage"/>
                <dc:title/>
            </cc:Work>
        </rdf:RDF>
    </metadata>
    <g transform="translate(-32.453 -43.5)" fill="none" stroke="#000" stroke-width="1.3229" aria-label="404">
        <path d="m54.198 68.643h4.9857v3.8199h-4.9857v8.3344h-4.8617v-8.3344h-16.222v-2.7533l15.925-25.028h5.1594zm-15.875 0h11.013v-16.942l-0.14883-0.02481-0.47129 1.2402z"/>
        <path d="m86.122 67.031q0 6.9205-3.0758 10.616-3.051 3.6711-8.384 3.6711t-8.4336-3.6959q-3.1006-3.6959-3.1006-10.592v-8.5576q0-6.8957 3.0758-10.592 3.1006-3.7207 8.4088-3.7207 5.333 0 8.4088 3.7207 3.1006 3.6959 3.1006 10.592zm-4.8865-9.5994q0-4.6881-1.7115-7.0445-1.6867-2.3812-4.9113-2.3812-3.2246 0-4.9113 2.3812-1.6867 2.3564-1.6867 7.0445v10.592q0 4.6881 1.7115 7.0941 1.7115 2.3812 4.9361 2.3812t4.8865-2.3812q1.6867-2.3812 1.6867-7.0941z"/>
        <path d="m111.45 68.643h4.9857v3.8199h-4.9857v8.3344h-4.8617v-8.3344h-16.222v-2.7533l15.925-25.028h5.1594zm-15.875 0h11.013v-16.942l-0.14883-0.02481-0.47129 1.2402z"/>
    </g>
</svg>