<?xml version="1.0" encoding="UTF-8"?>
<svg width="69.667mm" height="82.754mm" version="1.1" viewBox="0 0 69.667084 82.754425" xmlns="http://www.w3.org/2000/svg" xmlns:cc="http://creativecommons.org/ns#" xmlns:dc="http://purl.org/dc/elements/1.1/" xmlns:rdf="http://www.w3.org/1999/02/22-rdf-syntax-ns#">
 <metadata>
  <rdf:RDF>
   <cc:Work rdf:about="">
    <dc:format>image/svg+xml</dc:format>
    <dc:type rdf:resource="http://purl.org/dc/dcmitype/StillImage"/>
    <dc:title/>
   </cc:Work>
  </rdf:RDF>
 </metadata>
 <g transform="translate(-74.608 -90.093)" stroke="#e6e6e6" stroke-width="1.2203">
  <path d="m133.21 166.51c5.7478-3.7773 6.9877-7.8352 6.9877-22.87 0-12.835-0.13777-13.638-2.3425-13.638-1.4341 0-2.7689 1.2478-3.4422 3.2177-0.76116 2.2272-0.58183 3.0979-2.242 3.0893-1.5713-8e-3 -1.2288-1.6621-1.2288-4.4168 0-3.0305-0.63408-4.816-1.9027-5.3575-2.3228-0.9916-5.0389 2.7444-5.0389 6.931 0 1.6344 0.11057 2.9717-1.1569 2.9717-1.5831 0-1.1569-2.5354-1.1569-5.6343 0-6.5697-2.3662-9.8587-5.2062-7.2366-1.068 0.98603-1.7354 3.8104-1.7354 7.3438 0 4.0193 0.46041 5.1609-1.4462 5.2088-1.8983-0.36987-1.2022-13.954-1.2356-16.084-0.12633-2.3825-0.0371-13.698-0.99087-14.952-0.84959-1.117-3.0557-1.2328-4.129-0.33476-1.0767 0.8282-1.0088 2.4145-1.2856 4.6021-0.65069 5.1415-0.61808 13.156-0.64156 14.808-0.0257 1.8084 0.19884 11.985 0.28852 14.385 0.0644 1.7238-2.5348 4.9514-8.0972 0.46879-5.3023-4.2731-7.0151-4.6876-8.9043-2.1554-0.99089 1.3283 1.7546 5.0322 12.403 16.732 0 0 9.6939 11.221 13.675 13.356s7.8129 2.7842 7.8129 2.7842c3.7423 0.33551 8.9023-1.8297 11.016-3.2188zm-19.885 4.015s-3.0141-1.4801-6.0303-4.5644c-8.5173-8.7095-22.63-25.334-22.63-27.635 0-6.1263 6.7667-7.6697 13.457-3.0694l3.8966 2.6792v-15.948c0-17.547 2.4037-20.623 6.1606-20.623 5.1254 0 6.5657 2.383 6.5657 10.863 0 6.8485 0.22383 7.5726 2.1321 6.8988 1.2428-0.43873 3.3377 0.30237 5.0228 1.7768 1.7208 1.5059 3.858 2.2482 5.281 1.8342 1.5022-0.43691 3.258 0.26998 4.7254 1.9022 1.4905 1.6582 3.2166 2.3412 4.7728 1.8885 1.4678-0.42686 3.3434 0.20249 4.7136 1.5821 1.9848 1.9983 2.2758 4.0004 2.2758 15.658 0 16.58-1.9583 21.893-9.5821 25.999-2.7386 1.4748-6.8768 2.3834-10.839 2.4675-3.8819 0.0824-9.922-1.709-9.922-1.709z"/>
  <path d="m133.74 107.02c-0.95018-1.1077 0.11933-1.8962 1.0668-2.771 1.9349-1.7472 3.961-2.7896 3.6973-3.2932-0.45055-0.86032-5.3642-0.34978-12.758-0.55633-4.6259-0.12922-5.3479 0.36528-5.3479-1.2871 0.0225-1.7818 0.84812-1.7027 5.3034-1.6629 11.836 0.10566 13.829 1.4296 9.0175-3.5781-1.0812-1.3291-1.8776-2.0163-0.67644-3.0059 1.8648-1.233 9.4679 4.8732 9.4982 8.236 0.029 3.1406-7.9041 9.5638-9.8005 7.9185z"/>
  <path d="m85.019 107.02c0.95018-1.1077-0.11933-1.8962-1.0668-2.771-5.2406-4.7324-2.6609-3.5221 9.061-3.8495 4.6259-0.12922 5.3479 0.36528 5.3479-1.2871-0.0225-1.7818-0.84812-1.7027-5.3034-1.6629-11.836 0.10566-13.829 1.4296-9.0175-3.5781 1.0812-1.3291 1.8776-2.0163 0.67644-3.0059-1.8648-1.233-9.4679 4.8732-9.4982 8.236-0.029 3.1406 7.9041 9.5638 9.8005 7.9185z"/>
 </g>
</svg>
